<?xml version="1.0" standalone="no"?>
<!DOCTYPE svg PUBLIC "-//W3C//DTD SVG 20010904//EN"
 "http://www.w3.org/TR/2001/REC-SVG-20010904/DTD/svg10.dtd">
<svg version="1.0" xmlns="http://www.w3.org/2000/svg"
 width="880.000000pt" height="880.000000pt" viewBox="0 0 880.000000 880.000000"
 preserveAspectRatio="xMidYMid meet">

<g transform="translate(0.000000,880.000000) scale(0.100000,-0.100000)"
fill="#000000" stroke="none">
<path d="M3877 8160 c-48 -15 -93 -56 -123 -114 -22 -43 -36 -57 -58 -62 -42
-9 -101 -67 -125 -123 -28 -66 -44 -216 -34 -316 10 -95 6 -94 134 -33 l86 40
-1 78 c-1 70 2 81 23 104 14 14 33 26 42 26 24 0 59 -38 66 -72 3 -16 8 -28
11 -28 8 0 52 50 79 91 14 22 27 39 28 39 1 0 34 -13 73 -29 143 -59 282 -77
305 -40 25 40 -46 152 -178 284 -129 129 -242 183 -328 155z"/>
<path d="M6081 7894 c-19 -67 -12 -90 46 -161 18 -22 19 -22 78 -7 79 21 175
15 212 -12 36 -27 39 -58 13 -118 -21 -49 -27 -111 -11 -120 5 -3 23 2 41 10
90 45 121 -73 40 -151 -17 -16 -30 -32 -30 -37 0 -22 67 -48 124 -48 117 0
163 59 158 200 -5 126 -5 150 3 206 12 82 -23 130 -104 143 -27 5 -35 12 -45
41 -9 27 -22 40 -60 59 -47 23 -62 25 -252 29 l-202 4 -11 -38z"/>
<path d="M3100 7145 c-313 -65 -321 -68 -382 -134 -130 -142 -671 -849 -708
-926 -48 -99 -71 -340 -73 -770 l-2 -280 158 -8 c87 -5 160 -7 162 -5 3 2 27
204 56 448 28 245 55 454 61 465 5 11 106 119 225 240 l215 220 -6 -122 c-13
-269 -67 -519 -161 -739 -82 -192 -131 -462 -123 -679 l3 -90 70 -37 c39 -20
104 -46 145 -57 93 -25 319 -57 463 -67 l108 -6 -5 33 c-35 204 -53 621 -38
857 15 225 31 340 78 536 48 201 64 331 64 526 0 171 -9 276 -36 415 -18 95
-52 213 -62 218 -4 2 -99 -15 -212 -38z"/>
<path d="M3685 6990 c8 -22 24 -86 37 -142 20 -90 23 -129 23 -313 -1 -201 -2
-217 -37 -390 -45 -222 -55 -295 -69 -510 -15 -243 6 -788 38 -964 l6 -34 87
6 c81 5 160 26 160 43 0 4 -11 35 -24 68 -77 191 -84 588 -21 1086 38 301 47
360 56 354 5 -3 9 -16 9 -29 0 -45 89 -509 114 -595 19 -67 31 -89 57 -111 64
-52 762 -433 782 -426 4 1 37 67 72 147 49 108 62 146 53 152 -7 5 -78 47
-158 95 -80 47 -190 113 -245 146 -55 33 -127 76 -160 95 -33 20 -63 40 -68
46 -11 16 -20 57 -72 311 -76 375 -140 648 -171 725 -13 32 -30 49 -88 85 -62
38 -375 195 -390 195 -3 0 1 -18 9 -40z"/>
<path d="M3571 6912 l-45 -39 21 -52 22 -51 -24 -228 c-41 -380 -78 -621 -121
-785 l-26 -98 30 -87 c17 -48 36 -101 42 -117 l11 -29 63 108 63 108 6 437 c6
490 17 639 52 718 l23 52 -26 50 c-15 28 -31 51 -37 51 -5 0 -30 -17 -54 -38z"/>
<path d="M6661 6871 c-92 -129 -161 -359 -181 -602 -13 -153 -8 -248 26 -546
13 -117 24 -222 24 -233 0 -21 -32 -40 -93 -55 -26 -7 -27 -7 -15 25 8 25 8
174 -2 589 -12 550 -12 557 8 602 l20 46 -37 43 -37 43 -18 -42 c-16 -35 -17
-47 -8 -80 17 -54 15 -320 -3 -502 -9 -85 -31 -265 -51 -401 l-35 -247 25 -58
c23 -53 23 -59 9 -70 -45 -35 -45 -44 -40 505 3 483 5 524 26 627 21 108 61
328 61 339 0 3 -15 -3 -32 -14 -18 -10 -59 -25 -91 -33 -81 -21 -131 -54 -215
-140 -84 -87 -113 -144 -139 -274 -25 -125 -23 -498 5 -808 l21 -230 -24 -52
c-27 -59 -19 -56 -215 -94 -63 -13 -116 -24 -118 -25 -3 -2 37 -314 43 -331 2
-7 -20 -43 -50 -82 l-55 -69 78 -75 c42 -41 95 -90 117 -109 l40 -36 152 178
c83 99 153 177 156 174 7 -8 -31 -205 -53 -268 -19 -56 -19 -60 -2 -72 30 -24
95 -36 156 -31 32 3 62 9 66 14 5 4 17 109 27 233 l18 224 35 9 c19 5 95 29
169 53 74 25 137 42 140 38 11 -11 5 -379 -8 -472 -7 -51 -11 -96 -8 -98 14
-14 468 43 625 77 l92 21 0 68 c0 38 -6 101 -14 142 -16 83 -164 622 -195 711
l-20 58 33 82 c88 213 143 444 152 637 12 235 -20 333 -151 459 -85 81 -122
101 -225 117 -25 3 -71 19 -102 35 -32 16 -60 29 -62 29 -3 0 -14 -13 -25 -29z"/>
<path d="M1808 4779 c-49 -11 -109 -50 -139 -88 l-24 -30 -80 25 c-150 46
-254 74 -280 74 -53 0 -117 -52 -136 -109 -12 -34 -70 -257 -184 -698 -30
-116 -55 -226 -55 -243 0 -18 7 -47 16 -66 31 -65 34 -66 414 -178 85 -25 263
-77 395 -116 132 -39 326 -96 430 -126 105 -30 215 -64 245 -74 89 -31 170 0
203 77 8 21 68 242 132 491 133 514 133 514 67 580 -39 39 -60 47 -328 118
l-100 27 -12 50 c-13 53 -56 128 -100 172 -37 37 -149 92 -224 110 -69 16
-182 18 -240 4z m236 -74 c81 -21 140 -52 195 -101 44 -40 90 -118 76 -132 -4
-4 -522 143 -589 167 -19 8 -19 9 8 34 61 57 170 68 310 32z m-160 -679 c43
-18 45 -39 18 -131 -15 -49 -22 -61 -42 -63 -34 -5 -111 19 -118 36 -8 21 16
132 35 161 16 26 40 25 107 -3z"/>
<path d="M1786 3966 c-22 -74 -21 -82 15 -95 51 -18 57 -14 74 41 20 68 19 77
-7 87 -67 25 -65 26 -82 -33z"/>
<path d="M1938 1926 l-37 -73 63 -79 c187 -237 396 -423 532 -474 59 -22 88
-20 98 6 7 17 -15 64 -38 83 -52 43 -182 290 -227 429 -21 65 -26 72 -49 72
-43 0 -169 39 -233 73 -34 17 -64 33 -67 35 -3 1 -22 -31 -42 -72z"/>
<path d="M3750 1691 c-26 -15 -183 -51 -222 -51 l-38 0 0 -109 c0 -60 3 -123
6 -140 l7 -31 261 0 c143 0 312 -5 375 -10 93 -8 117 -8 128 3 18 18 -8 42
-121 107 -49 28 -152 93 -228 145 -77 52 -142 95 -146 95 -4 0 -14 -4 -22 -9z"/>
<path d="M7035 1674 c-33 -7 -116 -13 -185 -14 l-124 0 -36 -34 c-29 -29 -200
-136 -216 -136 -3 0 -2 19 1 43 l7 42 -134 18 c-175 23 -189 22 -251 -13 -71
-40 -168 -75 -252 -90 -82 -16 -131 -53 -119 -92 3 -13 7 -24 8 -25 0 -1 51 5
111 13 85 12 177 14 400 10 160 -3 306 -8 325 -12 42 -7 190 9 275 31 67 17
228 92 262 121 20 18 21 23 11 87 -6 37 -13 67 -17 66 -3 -1 -33 -7 -66 -15z"/>
</g>
</svg>
